# xmcd
#
# Track frame offsets: 
#        150
#        14160
#        26773
#        38549
#        51037
#        61360
#        75094
#        86782
#        97116
#        110658
#        123988
#        137004
#        149926
#        164929
#        180598
#        192933
#        209270
#        219644
#        233219
#        250702
#        266838
#        278728
#        290728
#        297493
#
# Disc length: 4220 seconds
#
# Revision: 0
# Processed by: cddbd v1.5.2PL0 Copyright (c) Steve Scherf et al.
# Submitted via: ExactAudioCopy v0.99pb5
#
DISCID=7e107a18
DTITLE=Various Artist - Johnny Cash and June Carter and Friends - Duets and 8 Bonus
DTITLE=titel
DYEAR=2006
DGENRE=Country
TTITLE0=Johnny Cash and June Carter Cash - It Ain't Me, Babe
TTITLE1=Johnny Cash and June Carter Cash - Jackson
TTITLE2=Johnny Cash and June Carter Cash - Long-Legged Guitar Pickin' Ma
TTITLE2=n
TTITLE3=Johnny Cash and June Carter Cash - Oh, What A Good Thing We Had
TTITLE4=Johnny Cash and June Carter Cash - Darlin' Companion
TTITLE5=Johnny Cash and June Carter Cash - If I Were A Carpenter
TTITLE6=Johnny Cash and June Carter Cash - 'Cause I Love You
TTITLE7=Johnny Cash and June Carter Cash - The Loving Gift
TTITLE8=Johnny Cash and June Carter Cash - Help Me Make It Through The N
TTITLE8=ight
TTITLE9=Johnny Cash and June Carter Cash - The Pine Tree
TTITLE10=Johnny Cash and June Carter Cash - No Need To Worry
TTITLE11=Johnny Cash and June Carter Cash - Old Time Feeling
TTITLE12=Johnny Cash and June Carter Cash - One Way Rider
TTITLE13=Johnny Cash and June Carter Cash - Brand New Dance
TTITLE14=Johnny Cash and June Carter Cash - Far Side Banks Of Jordan
TTITLE15=Johnny Cash and June Carter Cash - It Takes One To Know Me
TTITLE16=Johnny Cash and June Carter Cash - Keep On The Sunny Side
TTITLE17=Johnny Cash and Maybelle Carter - Pick The Wildwood Flower
TTITLE18=Johnny Cash and Rodney Crowell - I Walk the Line (Revisited)
TTITLE19=Johnny Cash - When I'm Gray
TTITLE20=Johnny Cash - Wide Open Road
TTITLE21=Johnny Cash - Train of Love
TTITLE22=Johnny Cash - One More Ride
TTITLE23=Johnny Cash - Doin' My Time
EXTD=
EXTT0=
EXTT1=
EXTT2=
EXTT3=
EXTT4=
EXTT5=
EXTT6=
EXTT7=
EXTT8=
EXTT9=
EXTT10=
EXTT11=
EXTT12=
EXTT13=
EXTT14=
EXTT15=
EXTT16=[rec. 1974][The Junkie and the Juicehead Minus Me (1974), Track
EXTT16=06 - The Legend (2005), CD 4, Track 01]\n
EXTT17=[rec. 1973][Single (1973) - The Legend (2005), CD 4, Track 06]\n
EXTT18=[rec. 1998][Single (1998) - The Houston Kid (2001), Track 06 - Th
EXTT18=e Legend (2005), CD 4, Track 18]\n
EXTT19=[rec. 1981][Previously unreleased - The Legend (2005), CD 2, Tra
EXTT19=ck 26]\n
EXTT20=[rec. 1955][Single (1964) - Original Sun Sound (1964), Track 04]
EXTT20=\n
EXTT21=[rec. 1956][Single (1956) - Sings the Songs That Made Him Famous
EXTT21=(1958), Track 05]\n
EXTT22=[rec. 1958][The Fabulous Johnny Cash (1959), Track 05]\n
EXTT23=[rec. 1881][Previously unreleased alternative recording - The Le
EXTT23=gend (2005), CD 2, Track 20]\n
PLAYORDER=
